<?xml version="1.0" encoding="UTF-8"?>
<svg width="752pt" height="752pt" version="1.1" viewBox="0 0 752 752" xmlns="http://www.w3.org/2000/svg">
 <defs>
  <clipPath id="a">
   <path d="m239 139.21h274v473.58h-274z"/>
  </clipPath>
 </defs>
 <g clip-path="url(#a)">
  <path d="m376 612.79c-36.293-0.10156-71.07-14.562-96.734-40.227-25.66-25.664-40.125-60.441-40.223-96.734v-199.66c0-48.934 26.102-94.145 68.48-118.61 42.375-24.465 94.582-24.465 136.96 0 42.375 24.469 68.48 69.68 68.48 118.61v199.66c-0.10156 36.293-14.562 71.07-40.227 96.734-25.66 25.664-60.441 40.125-96.734 40.227zm0-449c-29.793 0.039063-58.355 11.891-79.422 32.957s-32.918 49.629-32.957 79.426v199.66c0 40.148 21.418 77.25 56.191 97.324 34.77 20.074 77.609 20.074 112.38 0 34.77-20.074 56.191-57.176 56.191-97.324v-199.66c-0.039062-29.797-11.891-58.359-32.957-79.426-21.066-21.066-49.629-32.918-79.426-32.957z"/>
 </g>
 <path d="m376 334.71c-6.7812 0-12.285-5.4844-12.312-12.27v-72.598c0-6.8008 5.5117-12.312 12.312-12.312s12.316 5.5117 12.316 12.312v72.598c-0.027344 6.7852-5.5312 12.27-12.316 12.27z"/>
</svg>
